<svg id="svg" version="1.1" xmlns="http://www.w3.org/2000/svg" xmlns:xlink="http://www.w3.org/1999/xlink" width="400" height="400" viewBox="0, 0, 400,400"><g id="svgg"><path id="path0" d="M194.200 51.056 C 116.383 54.760,56.460 114.057,52.014 191.758 C 50.719 214.399,56.780 243.202,67.228 264.053 C 107.747 344.919,211.123 370.772,284.548 318.403 C 350.825 271.131,366.347 179.151,319.203 113.052 C 300.280 86.521,273.520 67.009,244.000 58.217 C 226.790 53.092,208.049 50.396,194.200 51.056 M217.200 67.146 C 319.894 82.511,366.816 201.075,302.150 281.800 C 262.395 331.427,190.310 345.384,134.800 314.203 C 57.931 271.024,43.415 166.965,105.587 104.787 C 134.799 75.573,177.430 61.195,217.200 67.146 M102.415 124.384 C 100.986 125.914,98.400 131.932,98.400 133.728 C 98.400 135.949,100.029 136.965,112.960 142.802 C 125.750 148.576,127.918 149.929,128.834 152.704 C 129.343 154.247,129.306 158.909,128.407 205.200 C 127.773 237.890,127.700 236.056,129.700 237.916 C 130.813 238.950,141.760 244.060,144.793 244.961 C 148.891 246.178,145.910 248.846,179.381 214.000 C 196.731 195.937,198.442 194.245,200.030 193.588 C 203.701 192.067,204.784 195.388,203.609 204.562 C 203.386 206.300,202.838 213.140,202.391 219.762 C 201.408 234.306,200.134 252.992,199.611 260.512 C 199.008 269.202,199.164 269.414,209.600 274.046 C 217.184 277.412,218.915 277.701,221.302 276.000 C 222.073 275.450,235.667 263.043,251.510 248.429 C 267.353 233.816,281.052 221.423,281.954 220.891 C 285.062 219.055,286.207 219.331,299.110 225.020 C 314.522 231.815,314.428 231.812,317.289 225.706 C 319.465 221.064,319.619 219.679,318.145 218.041 C 316.316 216.009,281.690 200.800,278.892 200.800 C 276.974 200.800,273.273 204.080,249.782 226.600 C 221.029 254.164,221.416 253.852,218.982 251.418 C 217.565 250.001,217.630 248.204,220.400 212.400 C 223.408 173.517,223.444 176.294,219.898 174.255 C 211.928 169.675,204.172 167.323,201.847 168.783 C 200.608 169.562,170.620 199.881,157.997 213.117 C 149.669 221.850,147.808 223.019,145.786 220.785 C 144.420 219.275,144.390 220.534,146.812 177.800 C 148.579 146.621,148.622 145.274,147.889 143.538 C 147.106 141.681,145.942 141.004,135.600 136.392 C 131.090 134.381,122.612 130.589,116.761 127.967 C 105.070 122.729,104.171 122.504,102.415 124.384 " stroke="none" fill="#0e4d06" fill-rule="evenodd"></path><path id="path1" d="M0.000 200.000 L 0.000 400.000 200.000 400.000 L 400.000 400.000 400.000 200.000 L 400.000 0.000 200.000 0.000 L 0.000 0.000 0.000 200.000 M214.000 48.239 C 285.120 56.100,338.361 107.735,348.830 178.998 C 355.390 223.656,339.025 271.738,306.005 304.818 C 264.523 346.377,205.112 359.854,148.619 340.522 C 79.553 316.886,36.565 242.102,51.057 170.800 C 59.551 129.013,79.603 98.048,113.600 74.220 C 142.149 54.212,179.827 44.461,214.000 48.239 M187.200 70.037 C 153.415 73.416,117.640 92.271,100.369 115.800 C 99.401 117.120,97.448 119.640,96.031 121.400 C 70.036 153.677,63.046 204.533,79.037 245.039 C 111.829 328.102,215.661 353.978,283.400 295.969 C 304.637 277.783,321.191 249.521,325.203 224.600 C 325.451 223.060,325.997 220.000,326.417 217.800 C 329.184 203.284,328.397 184.227,324.343 167.608 C 309.317 106.016,249.926 63.762,187.200 70.037 M116.200 123.779 C 121.480 126.159,129.940 129.947,135.000 132.196 C 153.004 140.198,152.314 139.430,151.871 150.976 C 151.736 154.509,151.070 166.940,150.392 178.600 C 148.649 208.582,148.481 214.703,149.392 215.052 C 150.521 215.486,151.289 214.798,162.617 203.200 C 200.723 164.185,201.323 163.634,205.122 164.155 C 208.413 164.606,222.697 171.180,224.475 173.062 C 226.939 175.672,226.945 174.831,224.218 210.476 C 223.018 226.164,221.956 240.080,221.858 241.400 C 221.616 244.657,221.967 245.769,223.289 245.924 C 224.429 246.058,222.360 247.975,258.567 213.249 C 276.626 195.930,276.636 195.924,282.905 198.035 C 286.510 199.250,318.718 213.534,320.479 214.700 C 324.031 217.051,324.225 219.480,321.358 225.734 C 316.348 236.664,316.541 236.639,298.448 228.637 C 286.732 223.456,285.352 223.081,283.146 224.479 C 282.346 224.985,268.756 237.351,252.946 251.958 C 237.136 266.565,223.390 279.043,222.400 279.687 C 219.343 281.675,217.024 281.284,208.000 277.262 C 195.308 271.605,195.193 271.445,195.970 260.354 C 196.192 257.189,196.649 250.550,196.987 245.600 C 198.042 230.155,199.584 207.953,199.851 204.393 C 200.394 197.135,201.216 196.490,174.209 224.509 C 148.698 250.974,149.321 250.477,144.031 248.611 C 134.312 245.182,126.274 240.703,125.075 238.050 C 124.121 235.936,124.136 237.895,124.801 203.800 C 125.796 152.692,125.783 155.113,125.068 153.732 C 124.111 151.881,123.206 151.366,112.200 146.404 C 92.503 137.526,92.457 137.475,96.118 128.472 C 100.707 117.187,101.281 117.053,116.200 123.779 " stroke="none" fill="#fbfbfb" fill-rule="evenodd"></path><path id="path2" d="M191.200 47.585 C 144.329 50.498,103.050 73.487,75.462 112.042 C 41.825 159.050,39.404 225.602,69.511 275.595 C 108.665 340.607,189.083 366.751,258.781 337.125 C 290.306 323.725,318.445 297.343,333.789 266.800 C 363.593 207.477,351.631 136.159,304.136 90.000 C 274.559 61.255,231.493 45.081,191.200 47.585 M211.600 51.649 C 285.753 58.282,342.099 116.819,346.381 191.671 C 348.242 224.197,337.173 259.990,316.910 286.967 C 268.571 351.324,176.888 364.753,111.800 317.009 C 76.226 290.915,54.588 250.412,52.015 205.100 C 50.683 181.661,56.993 152.764,68.248 130.757 C 95.060 78.332,152.923 46.400,211.600 51.649 M186.800 66.408 C 95.609 75.801,40.967 170.567,78.810 253.697 C 110.549 323.421,196.791 351.660,263.600 314.203 C 340.588 271.040,354.972 167.079,292.603 104.586 C 265.180 77.110,224.704 62.504,186.800 66.408 M216.800 70.747 C 255.920 76.568,288.042 97.465,308.803 130.600 C 324.757 156.063,331.666 190.268,326.417 217.800 C 325.997 220.000,325.451 223.060,325.203 224.600 C 321.774 245.900,308.758 270.601,291.826 287.943 C 225.980 355.385,113.659 332.738,79.037 245.039 C 63.046 204.533,70.036 153.677,96.031 121.400 C 97.448 119.640,99.401 117.120,100.369 115.800 C 104.083 110.740,114.250 101.032,121.816 95.320 C 148.425 75.232,184.397 65.925,216.800 70.747 M101.202 119.878 C 98.729 121.155,94.161 131.376,94.498 134.878 C 94.841 138.449,95.492 138.873,112.200 146.404 C 123.206 151.366,124.111 151.881,125.068 153.732 C 125.783 155.113,125.796 152.692,124.801 203.800 C 124.136 237.895,124.121 235.936,125.075 238.050 C 126.274 240.703,134.312 245.182,144.031 248.611 C 149.321 250.477,148.698 250.974,174.209 224.509 C 201.216 196.490,200.394 197.135,199.851 204.393 C 199.584 207.953,198.042 230.155,196.987 245.600 C 196.649 250.550,196.192 257.189,195.970 260.354 C 195.193 271.445,195.308 271.605,208.000 277.262 C 217.024 281.284,219.343 281.675,222.400 279.687 C 223.390 279.043,237.136 266.565,252.946 251.958 C 268.756 237.351,282.346 224.985,283.146 224.479 C 285.352 223.081,286.732 223.456,298.448 228.637 C 316.541 236.639,316.348 236.664,321.358 225.734 C 324.225 219.480,324.031 217.051,320.479 214.700 C 318.718 213.534,286.510 199.250,282.905 198.035 C 276.636 195.924,276.626 195.930,258.567 213.249 C 222.360 247.975,224.429 246.058,223.289 245.924 C 221.967 245.769,221.616 244.657,221.858 241.400 C 221.956 240.080,223.018 226.164,224.218 210.476 C 226.945 174.831,226.939 175.672,224.475 173.062 C 222.697 171.180,208.413 164.606,205.122 164.155 C 201.323 163.634,200.723 164.185,162.617 203.200 C 151.289 214.798,150.521 215.486,149.392 215.052 C 148.481 214.703,148.649 208.582,150.392 178.600 C 151.070 166.940,151.736 154.509,151.871 150.976 C 152.314 139.430,153.004 140.198,135.000 132.196 C 129.940 129.947,121.480 126.159,116.200 123.779 C 105.666 119.030,103.789 118.542,101.202 119.878 M116.761 127.967 C 122.612 130.589,131.090 134.381,135.600 136.392 C 145.942 141.004,147.106 141.681,147.889 143.538 C 148.622 145.274,148.579 146.621,146.812 177.800 C 144.390 220.534,144.420 219.275,145.786 220.785 C 147.808 223.019,149.669 221.850,157.997 213.117 C 170.620 199.881,200.608 169.562,201.847 168.783 C 204.172 167.323,211.928 169.675,219.898 174.255 C 223.444 176.294,223.408 173.517,220.400 212.400 C 217.630 248.204,217.565 250.001,218.982 251.418 C 221.416 253.852,221.029 254.164,249.782 226.600 C 273.273 204.080,276.974 200.800,278.892 200.800 C 281.690 200.800,316.316 216.009,318.145 218.041 C 319.619 219.679,319.465 221.064,317.289 225.706 C 314.428 231.812,314.522 231.815,299.110 225.020 C 286.207 219.331,285.062 219.055,281.954 220.891 C 281.052 221.423,267.353 233.816,251.510 248.429 C 235.667 263.043,222.073 275.450,221.302 276.000 C 218.915 277.701,217.184 277.412,209.600 274.046 C 199.164 269.414,199.008 269.202,199.611 260.512 C 200.134 252.992,201.408 234.306,202.391 219.762 C 202.838 213.140,203.386 206.300,203.609 204.562 C 204.784 195.388,203.701 192.067,200.030 193.588 C 198.442 194.245,196.731 195.937,179.381 214.000 C 145.910 248.846,148.891 246.178,144.793 244.961 C 141.760 244.060,130.813 238.950,129.700 237.916 C 127.700 236.056,127.773 237.890,128.407 205.200 C 129.306 158.909,129.343 154.247,128.834 152.704 C 127.918 149.929,125.750 148.576,112.960 142.802 C 96.975 135.586,96.996 135.608,99.854 128.954 C 102.936 121.781,102.952 121.780,116.761 127.967 " stroke="none" fill="#a1b89e" fill-rule="evenodd"></path></g></svg>